<?xml version="1.0" encoding="UTF-8"?>
<!-- Generated by Pixelmator Pro 3.7.1 -->
<svg width="389" height="549" viewBox="0 0 389 549" xmlns="http://www.w3.org/2000/svg">
    <g id="layer1">
        <g id="g6968">
            <radialGradient id="radialGradient1" cx="103.421026" cy="270.023234" r="20.645631" fx="103.421026" fy="270.023234" gradientUnits="userSpaceOnUse">
                <stop offset="1e-05" stop-color="#ffa0a0" stop-opacity="1"/>
                <stop offset="1" stop-color="#d40000" stop-opacity="0.97938"/>
            </radialGradient>
            <path id="path14767" fill="url(#radialGradient1)" stroke="#000000" stroke-width="3" stroke-linecap="round" stroke-linejoin="round" d="M 104.428596 252.93277 C 106.663834 252.66452 122.182793 273.382019 121.30146 275.451202 C 120.413757 277.520416 94.714882 280.605011 93.360962 278.804047 C 92.013435 277.003082 102.193352 253.200989 104.428596 252.93277 Z"/>
            <radialGradient id="radialGradient2" cx="70.155044" cy="121.242293" r="86.906152" fx="70.155044" fy="121.242293" gradientUnits="userSpaceOnUse">
                <stop offset="1e-05" stop-color="#ffa0a0" stop-opacity="1"/>
                <stop offset="1" stop-color="#d40000" stop-opacity="0.97938"/>
            </radialGradient>
            <path id="path14753" fill="url(#radialGradient2)" stroke="#000000" stroke-width="3" stroke-linecap="round" stroke-linejoin="round" d="M 189.674271 145.558228 C 189.674271 192.900604 147.396286 263.578888 103.911293 263.578888 C 59.136246 263.578888 18.148335 192.900604 18.148335 145.558228 C 18.150887 98.222229 56.56892 54.641418 103.911293 54.641418 C 151.253677 54.641418 189.674271 98.222229 189.674271 145.558228 Z"/>
            <path id="path14790" fill="none" stroke="#816647" stroke-width="1.91592" stroke-linecap="round" stroke-linejoin="round" d="M 97.333298 263.904602 C 102.72982 262.786987 106.529724 261.650208 113.618622 263.297913 C 122.33606 366.425476 178.60025 414.770508 202.926041 507.705414 C 204.816422 514.934814 202.025558 526.922119 203.551895 534.675171"/>
            <radialGradient id="radialGradient3" cx="285.363175" cy="228.12845" r="20.645632" fx="285.363175" fy="228.12845" gradientUnits="userSpaceOnUse">
                <stop offset="1e-05" stop-color="#ffd5a0" stop-opacity="1"/>
                <stop offset="1" stop-color="#ff9d22" stop-opacity="0.98039"/>
            </radialGradient>
            <path id="path14822" fill="url(#radialGradient3)" stroke="#000000" stroke-width="3" stroke-linecap="round" stroke-linejoin="round" d="M 286.370758 211.037994 C 288.605988 210.769745 304.124939 231.487213 303.243622 233.556396 C 302.355896 235.625641 276.657043 238.710236 275.303101 236.909271 C 273.955566 235.108307 284.135498 211.306213 286.370758 211.037994 Z"/>
            <radialGradient id="radialGradient4" cx="252.097193" cy="79.350702" r="86.904399" fx="252.097193" fy="79.350702" gradientUnits="userSpaceOnUse">
                <stop offset="1e-05" stop-color="#ffd5a0" stop-opacity="1"/>
                <stop offset="1" stop-color="#ff9d22" stop-opacity="0.98039"/>
            </radialGradient>
            <path id="path14824" fill="url(#radialGradient4)" stroke="#000000" stroke-width="3" stroke-linecap="round" stroke-linejoin="round" d="M 371.616425 103.66983 C 371.616425 151.005829 329.33844 221.684113 285.853424 221.684113 C 241.0784 221.684113 200.096878 151.005829 200.096878 103.66983 C 200.096878 56.327423 238.517441 12.746643 285.853424 12.746643 C 333.195831 12.747253 371.616425 56.327423 371.616425 103.66983 Z"/>
            <path id="path14826" fill="none" stroke="#816647" stroke-width="1.91592" stroke-linecap="round" stroke-linejoin="round" d="M 279.275452 222.009796 C 284.678345 220.89859 288.471893 219.755402 295.56076 221.403107 C 281.976898 362.267944 225.527512 392.807709 208.201218 507.858673 C 207.888275 509.940643 209.165558 518.543152 211.170898 534.426147"/>
            <radialGradient id="radialGradient5" cx="184.707125" cy="288.083973" r="20.645631" fx="184.707125" fy="288.083973" gradientUnits="userSpaceOnUse">
                <stop offset="1e-05" stop-color="#a0dfff" stop-opacity="1"/>
                <stop offset="1" stop-color="#00a6d4" stop-opacity="0.98039"/>
            </radialGradient>
            <path id="path14796" fill="url(#radialGradient5)" stroke="#000000" stroke-width="3" stroke-linecap="round" stroke-linejoin="round" d="M 185.714691 270.99353 C 187.949936 270.72525 203.468887 291.442749 202.587555 293.511932 C 201.69986 295.581177 176.000977 298.665771 174.647064 296.864807 C 173.29953 295.063843 183.479462 271.261749 185.714691 270.99353 Z"/>
            <radialGradient id="radialGradient6" cx="151.441143" cy="139.30565" r="86.904399" fx="151.441143" fy="139.30565" gradientUnits="userSpaceOnUse">
                <stop offset="1e-05" stop-color="#a0dfff" stop-opacity="1"/>
                <stop offset="1" stop-color="#00a6d4" stop-opacity="0.98039"/>
            </radialGradient>
            <path id="path14798" fill="url(#radialGradient6)" stroke="#000000" stroke-width="3" stroke-linecap="round" stroke-linejoin="round" d="M 270.953979 163.625336 C 270.953979 210.961334 228.682388 281.639648 185.197388 281.639648 C 140.422348 281.639648 99.434433 210.961334 99.434433 163.625336 C 99.434433 116.282959 137.855011 72.702179 185.197388 72.702179 C 232.533386 72.702179 270.953979 116.282959 270.953979 163.625336 Z"/>
            <path id="path14800" fill="none" stroke="#816647" stroke-width="1.91592" stroke-linecap="round" stroke-linejoin="round" d="M 178.619415 281.965332 C 184.0159 280.847717 187.815826 279.710938 194.904724 281.358643 C 202.964371 353.390808 218.291718 412.069092 205.857407 506.677216 C 205.544479 509.678833 207.409286 524.705994 207.013336 535.090271"/>
            <path id="path6930" fill="#816647" fill-rule="evenodd" stroke="none" d="M 205.576401 508.088593 C 204.886673 508.1716 204.65036 508.356842 202.60672 508.625061 C 202.076645 508.618652 201.635986 509.033783 201.623215 509.563873 C 201.616821 510.093933 202.031952 510.534576 202.562012 510.540985 C 202.274628 510.758118 201.904221 511.147705 201.942535 511.703308 C 201.968094 512.022644 202.197983 512.335571 202.402359 512.495239 C 202.395966 512.546326 202.370438 512.584656 202.364044 512.635742 C 202.306564 513.018921 202.229935 513.529785 202.146912 514.232361 C 202.076645 514.76239 202.453461 515.247742 202.983521 515.311646 C 203.51358 515.375488 203.992569 515.005066 204.06282 514.474976 C 204.113907 514.059875 204.145844 513.85553 204.17778 513.574524 C 204.57373 513.759705 205.039948 513.89386 205.614716 513.874695 C 206.655701 513.842712 207.907425 513.395691 209.510422 512.278076 C 209.791428 512.086487 209.95108 511.760773 209.925537 511.422302 C 209.899979 511.071045 209.650925 510.732544 209.427399 510.579285 C 209.38269 510.553772 209.350769 510.566498 209.312439 510.540985 C 209.599823 510.317474 209.931931 509.921509 209.887222 509.38504 C 209.855301 508.944366 209.529587 508.580353 209.088913 508.510101 C 206.802597 508.126953 206.266129 507.999207 205.576401 508.088593 Z"/>
        </g>
    </g>
</svg>
